<?xml version="1.0" encoding="UTF-8"?>
<svg xmlns="http://www.w3.org/2000/svg" version="1.1" viewBox="0 0 418 220">
  <defs>
    <style>
      .cls-1 {
        fill: #fff;
      }

      .cls-2 {
        fill: #e0ff00;
      }
    </style>
  </defs>
  <!-- Generator: Adobe Illustrator 28.7.4, SVG Export Plug-In . SVG Version: 1.2.0 Build 166)  -->
  <g>
    <g id="Layer_1">
      <rect x="11" y="15" width="396" height="156" rx="23" ry="23"/>
      <g>
        <path class="cls-2" d="M53.4,59.7c0-1.8.9-2.8,2.8-2.8h24.9c21.8,0,32.7,8.9,32.7,26.8s-2.9,15.9-8.6,20.5c-5.7,4.6-14,6.9-24.9,6.9h-6.9c-1.1,0-1.6.5-1.6,1.6v15.6c0,1.8-1,2.8-2.9,2.8h-12.8c-1.8,0-2.8-.9-2.8-2.8V59.7ZM80.3,94.2c9.6,0,14.4-3.5,14.4-10.4s-1.2-6-3.5-7.6c-2.4-1.6-6-2.4-10.9-2.4h-6.9c-1.1,0-1.6.5-1.6,1.6v17.1c0,1.1.5,1.6,1.6,1.6h6.9Z"/>
        <path class="cls-2" d="M124.9,59.7c0-1.8.9-2.8,2.8-2.8h26c20.8,0,31.2,8.1,31.2,24.3s-4.3,17.2-12.8,21.5l16.4,24.9c.5.7.7,1.3.7,1.9,0,1-.8,1.5-2.4,1.5h-14.3c-2.5,0-4.5-1.1-5.8-3.2l-12-19.3c-.6-1-1.6-1.5-2.8-1.5h-7.1c-.6,0-1.1.1-1.3.3s-.3.6-.3,1.3v19.6c0,1.8-1,2.8-2.9,2.8h-12.8c-1.8,0-2.8-.9-2.8-2.8V59.7ZM152.9,91c8.6,0,12.9-2.9,12.9-8.8s-1.1-5.1-3.2-6.4c-2.1-1.3-5.4-2-9.7-2h-8c-1.1,0-1.6.5-1.6,1.6v13.9c0,1.1.5,1.7,1.6,1.7h8Z"/>
      </g>
      <path class="cls-1" d="M197.7,59.7c0-1.8.9-2.8,2.8-2.8h12.8c1.9,0,2.9.9,2.9,2.8v68.6c0,1.8-1,2.8-2.9,2.8h-12.8c-1.8,0-2.8-.9-2.8-2.8V59.7Z"/>
      <path class="cls-1" d="M232,59.7c0-1.8.9-2.8,2.8-2.8h45.1c1.9,0,2.9.9,2.9,2.8v11.4c0,1.8-1,2.8-2.9,2.8h-27.8c-1.1,0-1.6.5-1.6,1.6v10.9c0,.6.1,1.1.3,1.3s.6.3,1.3.3h24.2c1.9,0,2.9,1,2.9,2.9v11.3c0,1.8-1,2.8-2.9,2.8h-24.2c-1.1,0-1.6.5-1.6,1.6v21.8c0,1.8-1,2.8-2.9,2.8h-12.8c-1.8,0-2.8-.9-2.8-2.8V59.7Z"/>
      <path class="cls-1" d="M318.8,104.1l-26.5-44.1c-.4-.6-.6-1.2-.6-1.7,0-.9.7-1.4,2.2-1.4h14.6c1.3,0,2.3.2,3,.5.6.4,1.3,1.2,2,2.4l14.6,25.8,14.6-25.8c.7-1.3,1.4-2.1,2-2.4.6-.4,1.6-.5,3-.5h14.1c1.5,0,2.2.5,2.2,1.4s-.2,1.1-.6,1.7l-26.1,43.6v24.7c0,1.8-.9,2.8-2.8,2.8h-12.9c-1.8,0-2.8-.9-2.8-2.8v-24.1Z"/>
      <path d="M51.3,185.4c.1.2.2.5,0,.8l-5.4,17.9c-.2.4-.5.7-1,.7h-3.7c-.5,0-.8-.2-1-.7l-2.8-9.3c0-.2-.1-.3-.2-.3,0,0-.1.1-.2.4l-2.7,9.3c-.1.4-.4.7-1,.7h-3.8c-.5,0-.8-.2-1-.7l-5.4-17.9c0-.3,0-.6,0-.8s.4-.3.7-.3h4.4c.3,0,.5,0,.6.1.1,0,.2.2.3.4l2.8,9.8c0,.2.1.3.2.3,0,0,.1,0,.1-.2l2.8-9.9c0-.2.1-.3.2-.4.1,0,.3-.1.6-.1h3.7c.3,0,.5,0,.6.1.1,0,.2.2.3.4l2.9,10.1c0,.1,0,.2.2.2s.1,0,.1-.1l2.7-10.1c0-.2.1-.3.2-.4.1,0,.3-.1.6-.1h3.1c.4,0,.6.1.7.3Z"/>
      <path d="M62.4,203.8c-1.4-.8-2.5-2-3.3-3.5-.8-1.5-1.2-3.3-1.2-5.3s.4-3.8,1.2-5.3c.8-1.5,1.9-2.7,3.3-3.5,1.4-.8,3.1-1.3,5-1.3s3.6.4,5,1.3c1.4.8,2.5,2,3.3,3.5.8,1.5,1.2,3.3,1.2,5.3s-.4,3.8-1.2,5.3-1.9,2.7-3.3,3.5c-1.4.8-3.1,1.2-5,1.2s-3.6-.4-5.1-1.2ZM69.9,199.6c.5-.9.7-2.4.7-4.5s-.2-3.8-.7-4.7c-.5-1-1.3-1.4-2.4-1.4s-2,.5-2.5,1.4c-.5,1-.8,2.5-.8,4.7s.2,3.6.7,4.5c.5.9,1.3,1.3,2.5,1.3s2-.4,2.4-1.3Z"/>
      <path d="M102.6,204.5c0,.2-.3.3-.5.3h-5.1c-.4,0-.6-.2-.7-.6l-2.5-6.8c-.1-.3-.4-.4-.8-.4h-1.2c-.1,0-.2,0-.3.1s0,.1,0,.2v6.7c0,.5-.3.8-.9.8h-4.4c-.3,0-.4,0-.5-.2,0-.1-.1-.3-.1-.5v-18.4c0-.4.2-.6.5-.6h8.8c2.6,0,4.5.5,6,1.5,1.4,1,2.1,2.4,2.1,4.1s-.1,1.6-.4,2.3c-.3.7-.7,1.3-1.2,1.8-.5.5-1.1.9-1.8,1.2-.2,0-.2.2-.1.5l3.3,7.4c0,.2,0,.4,0,.6ZM96.1,192.5c.4-.4.5-.8.5-1.4s-.2-1.2-.7-1.5c-.5-.4-1-.5-1.6-.5h-2.3c-.4,0-.6.2-.6.5v2.9c0,.4.1.6.5.6h2.6c.7,0,1.2-.2,1.5-.5Z"/>
      <path d="M129.8,204.5c0,.2-.2.3-.5.3h-5.2c-.5,0-.8-.2-1-.5l-3.2-7.4c-.1-.2-.3-.2-.6.1l-1.9,2.4c-.1.1-.2.3-.2.6v4c0,.5-.3.8-.9.8h-4.4c-.3,0-.5,0-.6-.2,0-.1-.1-.3-.1-.5v-18.4c0-.4.2-.6.5-.6h5c.3,0,.5.2.5.6v6.7c0,.2,0,.3.1.3s.2,0,.3-.2l4.9-6.8c.1-.2.3-.3.4-.4.2,0,.4-.1.7-.1h4c.3,0,.5,0,.6.2s0,.3,0,.5l-4.3,5.3c-.2.2-.2.5,0,.8l5.8,11.9c.1.2.1.4,0,.6Z"/>
      <path d="M140.5,203.8c-1.4-.8-2.5-2-3.3-3.5-.8-1.5-1.2-3.3-1.2-5.3s.4-3.8,1.2-5.3c.8-1.5,1.9-2.7,3.3-3.5,1.4-.8,3.1-1.3,5-1.3s3.6.4,5,1.3c1.4.8,2.5,2,3.3,3.5.8,1.5,1.2,3.3,1.2,5.3s-.4,3.8-1.2,5.3-1.9,2.7-3.3,3.5c-1.4.8-3.1,1.2-5,1.2s-3.6-.4-5.1-1.2ZM148,199.6c.5-.9.7-2.4.7-4.5s-.2-3.8-.7-4.7c-.5-1-1.3-1.4-2.4-1.4s-2,.5-2.5,1.4c-.5,1-.8,2.5-.8,4.7s.2,3.6.7,4.5c.5.9,1.3,1.3,2.5,1.3s2-.4,2.4-1.3Z"/>
      <path d="M179.2,201.8c-.7,1.2-1.7,2-3,2.5-1.3.5-2.8.7-4.4.7s-3.8-.3-5-1c-1.2-.7-2.1-1.6-2.6-2.9s-.8-2.8-.8-4.7v-10.7c0-.4.2-.6.5-.6h5c.3,0,.5.2.5.6v11.4c0,1.3.3,2.3.8,2.9.5.6,1.2.8,2.1.8s1.1-.1,1.5-.3c.5-.2.8-.6,1.1-1.2.3-.6.4-1.3.4-2.3v-11.3c0-.4.2-.6.5-.6h4c.3,0,.5.2.5.6v11.3c0,2-.4,3.6-1.1,4.8Z"/>
      <path d="M188.5,185.7c0-.2,0-.3.2-.4.1-.1.3-.2.5-.2h15.8c.2,0,.4,0,.5.2.1.1.2.3.2.4v3.1c0,.3-.2.5-.6.5h-4.7c-.2,0-.3,0-.3.3v14.5c0,.4-.2.6-.5.6h-5c-.3,0-.5-.2-.5-.5v-14.5c0-.2,0-.4-.3-.4h-4.7c-.4,0-.6-.2-.6-.5v-3.1Z"/>
      <path d="M225.2,185.7c0-.2,0-.3.2-.4.1-.1.3-.2.5-.2h15.8c.2,0,.4,0,.5.2.1.1.2.3.2.4v3.1c0,.3-.2.5-.6.5h-4.7c-.2,0-.3,0-.3.3v14.5c0,.4-.2.6-.5.6h-5c-.3,0-.5-.2-.5-.5v-14.5c0-.2,0-.4-.3-.4h-4.7c-.4,0-.6-.2-.6-.5v-3.1Z"/>
      <path d="M267.9,204.5c0,.2-.3.3-.5.3h-5.1c-.4,0-.6-.2-.7-.6l-2.5-6.8c-.1-.3-.4-.4-.8-.4h-1.2c-.1,0-.2,0-.3.1s0,.1,0,.2v6.7c0,.5-.3.8-.9.8h-4.4c-.3,0-.4,0-.5-.2,0-.1-.1-.3-.1-.5v-18.4c0-.4.2-.6.5-.6h8.8c2.6,0,4.5.5,6,1.5,1.4,1,2.1,2.4,2.1,4.1s-.1,1.6-.4,2.3c-.3.7-.7,1.3-1.2,1.8-.5.5-1.1.9-1.8,1.2-.2,0-.2.2-.1.5l3.3,7.4c0,.2,0,.4,0,.6ZM261.4,192.5c.4-.4.5-.8.5-1.4s-.2-1.2-.7-1.5c-.5-.4-1-.5-1.6-.5h-2.3c-.4,0-.6.2-.6.5v2.9c0,.4.1.6.5.6h2.6c.7,0,1.2-.2,1.5-.5Z"/>
      <path d="M275.2,204.5c0-.2,0-.4,0-.7l6.4-18c0-.2.2-.4.3-.5.1,0,.3-.1.5-.1h5.2c.5,0,.8.2,1,.7l6.4,18c0,.2,0,.4,0,.6,0,.2-.2.3-.4.3h-5.2c-.3,0-.5-.2-.6-.5l-1-3c0,0,0-.2-.1-.2,0,0-.1,0-.3,0h-5.6c-.2,0-.3,0-.4.3l-1.1,3.1c0,.1-.1.2-.2.3,0,0-.2.1-.4.1h-4c-.2,0-.3,0-.4-.3ZM286.1,196.4c.3,0,.3-.2.2-.5l-1.6-4.5c0,0,0-.1-.2-.1s-.1,0-.2.1l-1.6,4.5c-.1.4,0,.6.3.6h3Z"/>
      <path d="M314,185.3c.9.3,1.8.7,2.5,1.3.7.5,1.3,1.2,1.8,1.9s.8,1.6,1,2.4c0,.4.1.6,0,.7s-.2.2-.4.2l-4.6.3c-.2,0-.3,0-.4-.1s0-.2-.1-.4c-.1-.8-.4-1.4-.8-1.9-.4-.5-1-.8-1.9-.8s-1.8.4-2.4,1.3c-.6.9-.9,2.4-.9,4.5s.3,3.7.8,4.6c.5.9,1.3,1.3,2.4,1.3s1.7-.2,2.3-.7c.7-.5,1.2-1.3,1.7-2.4,0-.2.3-.3.7-.2l3.3.7c0,0,.2,0,.3.2.1.1.1.3,0,.7,0,.3-.2.7-.4,1.2-.2.5-.6,1-1,1.6-.4.6-1,1.1-1.6,1.6-.7.5-1.5.9-2.4,1.2-.9.3-2,.5-3.2.5-1.9,0-3.5-.4-4.9-1.3-1.4-.9-2.5-2.1-3.3-3.7s-1.2-3.3-1.2-5.3.4-3.7,1.2-5.2,1.9-2.6,3.3-3.4c1.4-.8,3.1-1.2,5-1.2s2.1.2,3.1.5Z"/>
      <path d="M346.4,204.5c0,.2-.2.3-.5.3h-5.2c-.5,0-.8-.2-1-.5l-3.2-7.4c-.1-.2-.3-.2-.6.1l-1.9,2.4c-.1.1-.2.3-.2.6v4c0,.5-.3.8-.9.8h-4.4c-.3,0-.5,0-.6-.2,0-.1-.1-.3-.1-.5v-18.4c0-.4.2-.6.5-.6h5c.3,0,.5.2.5.6v6.7c0,.2,0,.3.1.3s.2,0,.3-.2l4.9-6.8c.1-.2.3-.3.4-.4.2,0,.4-.1.7-.1h4c.3,0,.5,0,.6.2s0,.3,0,.5l-4.3,5.3c-.2.2-.2.5,0,.8l5.8,11.9c.1.2.1.4,0,.6Z"/>
      <path d="M355.2,185.1h14.3c.3,0,.5.2.5.6v3.1c0,.5-.2.7-.7.7h-8c-.4,0-.6.2-.6.5v2.2c0,.4.2.6.5.6h4.8c.4,0,.6.2.6.5v3.3c0,.1,0,.2-.1.3,0,0-.2.1-.4.1h-4.9c-.3,0-.4.1-.4.4v2.6c0,.2.1.4.3.4h8.6c.4,0,.6.2.6.5v3.3c0,.2,0,.3-.1.4,0,.1-.3.2-.5.2h-14.2c-.5,0-.7-.2-.7-.7v-18.4c0-.4.2-.6.5-.6Z"/>
      <path d="M396,204.5c0,.2-.3.3-.5.3h-5.1c-.4,0-.6-.2-.7-.6l-2.5-6.8c-.1-.3-.4-.4-.8-.4h-1.2c-.1,0-.2,0-.3.1s0,.1,0,.2v6.7c0,.5-.3.8-.9.8h-4.4c-.3,0-.4,0-.5-.2,0-.1-.1-.3-.1-.5v-18.4c0-.4.2-.6.5-.6h8.8c2.6,0,4.5.5,6,1.5,1.4,1,2.1,2.4,2.1,4.1s-.1,1.6-.4,2.3c-.3.7-.7,1.3-1.2,1.8-.5.5-1.1.9-1.8,1.2-.2,0-.2.2-.1.5l3.3,7.4c0,.2,0,.4,0,.6ZM389.5,192.5c.4-.4.5-.8.5-1.4s-.2-1.2-.7-1.5c-.5-.4-1-.5-1.6-.5h-2.3c-.4,0-.6.2-.6.5v2.9c0,.4.1.6.5.6h2.6c.7,0,1.2-.2,1.5-.5Z"/>
    </g>
  </g>
</svg>